# Blender 3.3.1
# www.blender.org
mtllib tree_trunk.mtl
o Cylinder.001
v 0.582865 9.893209 -0.647210
v 0.986192 9.724860 -0.228888
v 1.000280 10.180433 0.473621
v 0.534581 10.163413 1.131775
v -3.808609 -11.638274 -0.404332
v 1.245403 -8.829840 1.346485
v -1.149423 -1.952745 1.876841
v -1.636687 -6.468564 0.399401
v -0.946560 -2.153594 -0.461906
v 3.220832 -10.733228 0.448336
v -2.205338 -10.000151 1.594949
v 1.062466 -11.899851 -3.905735
v 1.750281 -10.038898 -2.080352
v 1.393741 -9.887622 2.230410
v -0.309565 -11.470878 3.717249
v -1.155430 -10.056283 2.480314
v -0.201410 8.619402 1.644331
v -0.843308 10.171614 0.846503
v -1.017442 10.182653 0.077201
v -1.649392 -9.939998 -2.115943
v -0.908930 9.591916 -0.390137
v 0.164480 -2.123288 -0.756550
v 1.525065 -7.676332 -0.464365
v 0.474500 -4.339645 2.154135
v -0.523797 -8.956528 -1.700577
v -1.572177 -8.863597 -0.832358
v -1.111574 -8.443316 1.453639
v 0.660445 -8.592702 -1.564496
v 1.432292 3.597745 0.565801
v 1.260188 5.868063 1.121240
v 0.599588 5.739707 1.819142
v -0.967783 5.849524 1.572752
v -1.419997 5.185404 0.658631
v -0.304357 0.022388 2.296742
v 1.044492 -0.063735 1.974295
v 0.924127 -0.019892 -0.401357
v 1.694203 -8.369577 0.305617
v -0.049206 -8.523748 1.866381
v -1.886940 -8.942778 -0.089532
v -0.188121 -9.998304 -2.752617
v -2.672419 -10.055193 0.217181
v 0.008879 9.988193 -0.811216
v -0.000312 10.030946 0.023649
v -0.521703 9.743432 -0.687101
v -0.041623 -10.753098 0.012912
vn 0.1532 0.0597 -0.9864
vn 0.0119 0.1015 -0.9948
vn 0.5970 0.0267 -0.8018
vn 0.8584 0.1094 -0.5012
vn 0.9976 0.0327 -0.0614
vn 0.9750 0.1986 0.0995
vn 0.9180 0.0616 0.3917
vn 0.6520 0.0172 0.7580
vn 0.4904 0.2982 0.8189
vn 0.4135 0.0881 0.9062
vn -0.1267 0.1578 0.9793
vn -0.7206 0.0766 0.6891
vn -0.6876 -0.0069 0.7260
vn -0.1765 0.0043 0.9843
vn -0.8112 0.2555 0.5261
vn -0.9966 0.0471 0.0671
vn -0.9607 0.1783 -0.2130
vn -0.7619 0.1040 -0.6393
vn -0.6552 0.0511 -0.7538
vn -0.9917 0.0255 0.1258
vn -0.9470 0.2842 -0.1496
vn -0.8207 0.2503 -0.5136
vn -0.6946 0.0125 0.7193
vn -0.8338 -0.0074 0.5521
vn -0.6670 0.0811 0.7407
vn 0.0897 0.0215 0.9957
vn -0.7248 -0.0002 0.6890
vn 0.7790 0.1035 0.6184
vn 0.9786 0.1398 0.1510
vn 0.9822 -0.0116 0.1875
vn 0.8273 0.1692 -0.5357
vn 0.8163 -0.0018 -0.5776
vn -0.2369 0.3057 -0.9222
vn 0.2878 0.2570 -0.9226
vn 0.2199 -0.0455 0.9745
vn -0.5003 0.0090 -0.8658
vn 0.2267 -0.0131 -0.9739
vn 0.5944 -0.0012 0.8042
vn -0.1117 -0.0117 0.9937
vn -0.4932 -0.0021 -0.8699
vn 0.4837 0.1000 -0.8695
vn -0.4305 0.1024 -0.8967
vn -0.0325 0.9994 -0.0139
vn -0.0154 -0.9998 0.0144
vn -0.9986 -0.0138 -0.0508
vt 0.916241 0.997873
vt 0.371915 0.452417
vt 0.825581 0.986036
vt 0.461180 0.355614
vt 0.719560 1.000000
vt 0.479344 0.205693
vt 0.591327 1.000000
vt 0.376713 0.054057
vt 0.522464 0.323902
vt 0.209060 0.502280
vt 0.620137 0.569268
vt 0.366426 0.709318
vt 0.266836 0.631616
vt 0.103723 0.713333
vt 0.985678 0.216029
vt 0.731347 0.505946
vt 0.561222 0.111068
vt 0.347824 0.507396
vt 0.807046 0.482151
vt 0.953117 0.507255
vt 0.908302 0.427841
vt 0.887459 0.512701
vt 0.881102 0.066701
vt 0.591951 0.508877
vt 0.483529 0.507834
vt 0.717791 0.013298
vt 0.637410 0.039358
vt 0.428207 0.514207
vt 0.474836 0.936643
vt 0.201121 0.020825
vt 0.343903 1.000000
vt 0.055956 0.120177
vt 0.218766 1.000000
vt 0.020885 0.295637
vt 0.619002 0.440791
vt 0.103993 0.507492
vt 0.135673 0.974137
vt 0.074735 0.410981
vt 0.011022 0.701300
vt 0.976262 0.704868
vt 0.828682 0.609632
vt 0.546732 0.661968
vt 0.994475 0.565569
vt 0.041702 0.570126
vt 0.158773 0.581736
vt 0.387246 0.583714
vt 0.940759 0.574529
vt 0.774318 0.813844
vt 0.686897 0.866395
vt 0.573165 0.866395
vt 0.376810 0.866395
vt 0.253113 0.853353
vt 0.468935 0.749472
vt 0.616353 0.749472
vt 0.895247 0.749472
vt 0.728424 0.577441
vt 0.496077 0.574994
vt 0.239001 0.559397
vt 0.999890 0.512923
vt 0.013450 0.512224
vt 0.727049 0.487740
vt 0.514344 0.205900
vt 0.261867 0.513756
vt 0.982059 1.002573
vt 0.010562 1.006243
vt 0.250636 0.486567
vt 0.250000 0.250000
vt 0.073441 0.990866
vt 0.145604 0.465022
vt 0.750000 0.250000
s 1
usemtl Material.002
f 22/40/1 42/64/2 36/55/3
f 36/55/3 2/3/4 29/48/5
f 3/5/6 30/49/7 29/48/5
f 29/48/5 30/49/7 35/54/8
f 4/7/9 31/50/10 30/49/7
f 4/7/9 17/29/11 31/50/10
f 32/51/12 7/12/13 34/53/14
f 32/51/12 18/31/15 33/52/16
f 33/52/16 19/33/17 21/37/18
f 21/37/18 9/14/19 8/13/20
f 39/58/21 26/45/22 41/63/23
f 11/18/24 27/46/25 41/63/23
f 27/46/25 8/13/20 39/58/21
f 38/57/26 11/18/24 16/28/27
f 6/11/28 38/57/26 16/28/27
f 37/56/29 6/11/28 10/16/30
f 23/41/31 10/16/30 13/22/32
f 25/43/33 28/47/34 13/22/32
f 26/45/22 9/14/19 25/44/33
f 27/46/25 7/12/13 8/13/20
f 24/42/35 34/53/14 7/12/13
f 24/42/35 38/57/26 6/11/28
f 35/54/8 24/42/35 6/11/28
f 35/54/8 6/11/28 37/56/29
f 29/48/5 37/56/29 23/41/31
f 34/53/14 35/54/8 31/50/10 17/29/11
f 36/55/3 23/41/31 22/40/1
f 22/40/1 28/47/34 25/43/33
f 40/59/36 25/43/33 12/20/37
f 6/11/28 14/24/38 10/16/30
f 14/24/38 16/28/27 15/25/39
f 20/36/40 25/44/33 40/60/36
f 36/55/3 42/64/2 1/1/41
f 36/55/3 1/1/41 2/3/4
f 2/3/4 3/5/6 29/48/5
f 3/5/6 4/7/9 30/49/7
f 35/54/8 30/49/7 31/50/10
f 22/39/1 9/14/19 44/68/42 42/65/2
f 17/29/11 32/51/12 34/53/14
f 32/51/12 17/29/11 18/31/15
f 32/51/12 33/52/16 7/12/13
f 33/52/16 18/31/15 19/33/17
f 33/52/16 21/37/18 8/13/20
f 21/37/18 44/68/42 9/14/19
f 42/66/2 43/67/43 1/2/41
f 44/69/42 43/67/43 42/66/2
f 21/38/18 43/67/43 44/69/42
f 19/34/17 43/67/43 21/38/18
f 18/32/15 43/67/43 19/34/17
f 17/30/11 43/67/43 18/32/15
f 4/8/9 43/67/43 17/30/11
f 3/6/6 43/67/43 4/8/9
f 2/4/4 43/67/43 3/6/6
f 1/2/41 43/67/43 2/4/4
f 7/12/13 27/46/25 38/57/26 24/42/35
f 12/19/37 45/70/44 40/61/36
f 13/21/32 45/70/44 12/19/37
f 10/15/30 45/70/44 13/21/32
f 14/23/38 45/70/44 10/15/30
f 15/26/39 45/70/44 14/23/38
f 16/27/27 45/70/44 15/26/39
f 11/17/24 45/70/44 16/27/27
f 41/62/23 45/70/44 11/17/24
f 5/9/45 45/70/44 41/62/23
f 20/35/40 45/70/44 5/9/45
f 40/61/36 45/70/44 20/35/40
f 39/58/21 8/13/20 26/45/22
f 41/63/23 27/46/25 39/58/21
f 38/57/26 27/46/25 11/18/24
f 10/16/30 23/41/31 37/56/29
f 28/47/34 23/41/31 13/22/32
f 25/44/33 9/14/19 22/39/1
f 26/45/22 8/13/20 9/14/19
f 8/13/20 7/12/13 33/52/16
f 20/36/40 5/10/45 41/63/23 26/45/22
f 35/54/8 34/53/14 24/42/35
f 29/48/5 35/54/8 37/56/29
f 36/55/3 29/48/5 23/41/31
f 22/40/1 23/41/31 28/47/34
f 12/20/37 25/43/33 13/22/32
f 14/24/38 6/11/28 16/28/27
f 26/45/22 25/44/33 20/36/40
